PathFileType	4	(X/Y/Z)	C:/Users/beibeiliu/ov580/test_trc/User2\sequence.11_training_dense_left.trc
DataRate	CameraRate	NumFrames	NumMarkers	Units	OrigDataRate	OrigDataStartFrame	OrigNumFrames
120	120	14	19	mm	120	46	366
Frame#	Time	ThumbCMC			ThumbMCP			ThumbIP			ThumbTip			IndexMCP			IndexPIP			IndexTip			MiddleMCP			MiddlePIP			MiddleTip			RingMCP			RingPIP			RingTip			PinkyMCP			PinkyPIP			PinkyTip			BackHand1			BackHand2			BackHand3	
		X0	Y0	Z0	X1	Y1	Z1	X2	Y2	Z2	X3	Y3	Z3	X4	Y4	Z4	X5	Y5	Z5	X6	Y6	Z6	X7	Y7	Z7	X8	Y8	Z8	X9	Y9	Z9	X10	Y10	Z10	X11	Y11	Z11	X12	Y12	Z12	X13	Y13	Z13	X14	Y14	Z14	X15	Y15	Z15	X16	Y16	Z16	X17	Y17	Z17	X18	Y18	Z18	
45	0.375	-254.537	13.3691	110.396	-240.191	2.84238	78.0083	-234.58	-7.2352	48.8195	-237.514	-17.9144	25.5136	-309.062	42.237	55.6737	-311.224	44.3109	23.7777	-311.171	31.3225	-4.2214	-340.054	29.483	62.1277	-354.558	24.8926	27.6675	-352.152	11.356	-2.01802	-350.224	6.37297	69.0967	-361.451	0.110671	42.8436	-357.871	-15.888	9.21503	-354.109	-24.5539	80.4919	-362.284	-36.1776	55.7211	-361.292	-42.482	30.692	-327.5	-1.50102	124.853	-310.504	-0.256139	154.056	-294.671	24.2734	128.164	
46	0.383333	-247.531	10.5778	107.117	-234.559	-2.97957	77.0222	-234.129	-11.6615	45.2845	-247.046	-21.2075	20.6525	-295.68	51.8447	59.897	-300.435	57.4405	30.3688	-305.962	45.1126	-0.215362	-327.786	47.4809	66.3928	-343.35	50.0253	30.9927	-347.973	35.2143	2.16443	-348.472	22.1722	76.0174	-358.666	25.1646	46.4174	-362.963	11.1051	16.8873	-355.372	-4.85114	82.4522	-364.181	-9.57972	60.4493	-367.496	-18.7387	34.2563	-319.676	12.8073	123.837	-305.213	3.37879	154.368	-283.408	27.4657	128.157	
47	0.391667	-240.668	4.07563	107.1	-237.481	-8.11826	75.8735	-232.71	-14.4495	39.0354	-243.993	-21.0826	16.025	-281.773	60.0435	59.7267	-282.866	65.8423	33.133	-289.143	57.9984	1.01928	-313.884	57.9988	72.2175	-330.433	67.8136	38.5227	-335.492	57.7788	4.37383	-339.073	41.9658	75.9759	-348.947	47.118	50.8443	-357.234	38.4058	18.9693	-348.051	12.9275	85.7648	-363.795	9.34729	59.9561	-369.457	4.07925	32.8877	-311.521	18.1439	126.511	-298.557	11.7757	152.173	-273.447	29.6069	129.443	
48	0.4	-236.586	1.4155	108.788	-233.482	-9.79193	75.2089	-229.405	-14.9736	37.827	-246.199	-17.5203	15.315	-269.507	63.3808	62.2756	-272.826	72.2957	32.4465	-279.048	64.6362	2.25113	-303.49	65.3652	72.7694	-313.128	80.0233	37.9841	-321.443	71.6403	3.48538	-323.771	50.8598	77.9854	-342.348	59.7486	50.9833	-343.671	54.5689	16.5872	-345.832	23.7448	83.7053	-358.787	23.9971	56.8577	-365.023	20.6047	35.3343	-306.186	24.9649	126.637	-294.842	14.1771	149.946	-269.163	28.8374	130.674	
49	0.408333	-229.876	1.80314	103.055	-228.584	-9.52237	74.055	-226.869	-14.975	38.8238	-238.789	-17.0348	12.3646	-261.099	65.6361	59.2359	-261.466	73.3603	28.6712	-267.021	66.1776	0.943954	-293.468	70.3064	70.1711	-305.46	83.0477	38.4665	-317.765	76.0269	2.58219	-318.655	56.7091	76.6311	-330.782	66.1878	48.056	-338.823	61.017	18.1506	-332.533	28.793	84.9445	-348.787	31.2858	57.7401	-362.268	27.659	32.2384	-299.361	31.1495	122.56	-286.246	15.5161	148.402	-260.976	30.7447	126.971	
50	0.416667	-226.198	-1.16867	106.312	-222.986	-10.9766	71.4797	-222.85	-17.8221	38.8022	-230.759	-21.0829	10.927	-252.686	60.7847	59.5644	-257.446	73.5067	26.9752	-259.231	66.5184	-0.976497	-287.29	69.1116	66.3827	-298.361	83.4773	34.1991	-309.439	77.975	2.42142	-310.508	56.841	74.5273	-326.922	66.7764	45.1175	-332.165	60.968	12.4333	-331.523	31.4973	79.1139	-347.12	32.3893	57.013	-353.427	32.2538	31.5145	-293.676	30.9862	121.271	-285.535	19.2394	147.53	-256.809	32.0125	124.731	
51	0.425	-223.137	-3.23606	104.031	-217.038	-16.193	70.8261	-220.486	-22.3234	37.7046	-230.203	-24.8321	8.11207	-250.586	60.21	53.7943	-250.957	69.1951	23.1415	-257.695	62.6481	-8.1383	-281.948	67.1414	61.9036	-289.546	81.3729	31.6616	-305.353	74.3121	-6.64019	-305.132	56.9181	68.9126	-319.259	66.3225	40.81	-329.698	59.4734	13.0381	-328.446	30.2096	79.9322	-343.167	33.6675	50.7429	-348.155	31.0301	26.1767	-289.11	31.7829	115.737	-283.335	18.4221	145.131	-250.975	32.6564	120.37	
52	0.433333	-225.929	-1.63414	99.9757	-219.562	-16.7344	71.1238	-218.183	-23.8673	30.1182	-230.562	-29.0499	7.88778	-252.395	56.683	50.1594	-252.216	65.1778	19.6447	-258.869	57.739	-11.8428	-283.541	67.3946	55.7823	-289.167	78.2419	26.4189	-299.153	71.2401	-9.28777	-308.359	51.8967	68.0612	-318.639	62.7866	38.699	-329.481	56.4836	8.10703	-327.632	28.5828	76.799	-342.858	31.458	49.0083	-354.707	29.3975	23.8107	-288.194	30.4222	111.271	-281.181	19.1496	145.456	-250.203	32.7553	114.964	
53	0.441667	-223.93	-4.60723	98.3255	-221.208	-18.3515	63.3151	-221.816	-29.3803	29.094	-235.865	-35.2784	9.21236	-255.105	52.0242	46.0661	-255.795	59.0974	13.5546	-261.087	52.4521	-13.5094	-282.112	62.6666	50.885	-294.803	73.2403	19.28	-307.362	66.1261	-11.9185	-306.287	51.0387	62.6152	-322.518	57.7481	38.6606	-330.405	53.5747	9.20936	-326.312	27.4754	76.5649	-343.576	29.2925	50.7382	-356.059	26.9781	28.3648	-290.157	29.5515	115.049	-278.762	21.071	141.401	-249.529	32.1413	110.768	
54	0.45	-228.562	-3.61164	91.2148	-227.719	-21.7644	64.3212	-231.027	-35.1937	29.7831	-246.778	-43.0491	10.762	-264.075	47.3542	40.9706	-267.669	52.9359	6.59872	-274.733	44.9421	-17.4781	-294.703	56.4276	51.7125	-305.967	65.0191	16.8634	-319.738	57.5869	-13.8745	-317.186	44.1226	65.6984	-335.287	50.7659	38.2962	-342.567	43.7095	10.45	-334.034	23.5654	78.5114	-352.066	23.3121	56.6619	-364.194	17.7286	33.3016	-293.33	29.3141	112.337	-280.464	19.5278	141.497	-252.935	29.269	107.916	
55	0.458333	-235.562	-5.45928	91.5444	-235.373	-26.831	61.4212	-244.974	-42.4672	34.1626	-258.906	-54.6444	11.6473	-276.933	39.5677	40.1441	-284.347	41.9046	7.28672	-294.612	32.5587	-19.1643	-303.14	49.129	49.8715	-319.531	55.7872	17.1809	-338.597	46.0525	-6.97725	-322.313	38.1613	67.8361	-347.314	42.1015	40.6345	-358.572	31.913	16.45	-340.565	18.7238	87.2203	-358.913	17.669	66.6297	-379.706	7.45218	43.9385	-294.336	26.9669	111.634	-278.989	24.1507	137.901	-257.109	30.6172	108.212	
56	0.466667	-240.008	-6.46731	87.8918	-241.068	-31.5512	62.797	-251.255	-51.6713	35.9375	-267.666	-65.7133	20.6435	-287.203	31.298	35.1898	-296.757	29.057	6.08418	-308.744	18.0064	-17.0602	-315.836	41.5925	48.2611	-337.908	41.5275	19.2775	-358.85	26.7654	-4.05134	-332.484	30.6168	70.7547	-359.32	30.2391	46.4775	-372.751	16.344	21.5676	-342.371	13.4216	93.2892	-366.406	10.9209	76.1794	-388.549	-0.82388	57.5283	-304.325	27.8584	111.102	-282.343	27.8088	141.085	-263.322	28.7072	100.27	
57	0.475	-243.116	-8.75918	91.9263	-246.411	-34.5352	68.8125	-260.723	-57.8313	43.3315	-276.318	-72.468	30.9059	-296.286	21.5784	32.1941	-310.493	17.5472	6.80218	-323.131	2.54109	-15.8287	-324.934	33.1929	49.7463	-346.251	31.02	25.2802	-370.129	10.4289	0.769382	-341.98	25.2862	68.8036	-364.606	21.9854	49.3765	-380.404	6.1558	31.1133	-348.933	9.22104	97.7044	-376.978	3.12748	82.5254	-395.033	-7.3292	67.8174	-305.744	23.6754	112.996	-281.928	29.1304	135.101	-267.478	27.7803	100.926	
58	0.483333	-240.002	-12.6862	91.0719	-246.94	-39.7437	71.1497	-256.105	-63.5082	49.0306	-277.205	-79.3936	34.6969	-296.672	15.6616	35.4607	-310.637	10.9817	8.42511	-327.502	-7.26339	-15.7201	-325.056	25.9241	51.3302	-350.908	20.5748	21.5119	-371.428	0.62855	1.79707	-341.261	19.7978	72.0057	-367.098	14.315	51.262	-382.033	-1.50898	33.2711	-350.698	6.45114	98.8972	-374.644	-0.471579	83.6109	-396.021	-15.1993	68.4635	-304.246	22.4947	107.387	-283.342	27.5257	136.452	-269.462	25.3484	98.9244	
